<svg width="76" height="76" viewBox="0 0 76 76" fill="none" xmlns="http://www.w3.org/2000/svg">
<path fill-rule="evenodd" clip-rule="evenodd" d="M37.818 6.38744e-05C16.926 -0.0379361 -0.00299928 16.8841 7.15329e-07 37.7451C-0.00399928 58.4841 16.768 75.4671 37.712 75.4851C58.623 75.5031 75.457 58.5941 75.49 37.8111C75.524 16.8941 58.599 0.0380639 37.818 6.38744e-05ZM70.243 43.7151C69.934 45.4451 69.476 47.1371 68.883 48.8141C68.813 48.8071 68.748 48.8081 68.688 48.7931C67.844 48.6011 67.059 48.9931 66.743 49.7611C66.405 50.5781 66.799 51.4881 67.475 51.8281C67.508 51.8451 67.538 51.8681 67.598 51.9051C66.847 53.5111 65.954 55.0331 64.936 56.5121C64.461 56.2051 63.957 56.1231 63.422 56.2921C63.078 56.3991 62.813 56.6181 62.604 56.9111C62.346 57.2661 62.275 57.6661 62.329 58.0921C62.383 58.5131 62.59 58.8511 62.919 59.1391C61.761 60.5021 60.517 61.7431 59.148 62.9111C58.775 62.4881 58.311 62.2791 57.75 62.3071C57.387 62.3261 57.074 62.4601 56.797 62.6891C56.463 62.9681 56.275 63.3271 56.224 63.7571C56.173 64.1761 56.281 64.5581 56.523 64.9261C55.051 65.9471 53.526 66.8301 51.903 67.5991C51.664 67.1051 51.295 66.7901 50.779 66.6611C50.422 66.5721 50.069 66.6031 49.729 66.7511C48.953 67.0871 48.637 67.8131 48.832 68.8681C47.175 69.4701 45.472 69.9171 43.7 70.2431C43.582 69.6791 43.28 69.2551 42.765 69.0031C42.47 68.8591 42.16 68.8111 41.83 68.8611C41.39 68.9281 41.035 69.1321 40.758 69.4811C40.488 69.8231 40.401 70.2191 40.41 70.6721C38.623 70.8081 36.86 70.8111 35.073 70.6681C35.113 70.1191 34.947 69.6761 34.58 69.3081C34.309 69.0361 33.975 68.8951 33.601 68.8531C33.168 68.8011 32.781 68.9221 32.435 69.1851C32.149 69.4021 32.059 69.5461 31.775 70.2361C30.036 69.9261 28.334 69.4661 26.651 68.8681C26.81 68.3571 26.788 67.8821 26.529 67.4301C26.347 67.1171 26.091 66.8911 25.758 66.7491C25.341 66.5721 24.917 66.5661 24.492 66.7331C24.08 66.8941 23.786 67.1851 23.594 67.5991C21.972 66.8301 20.451 65.9501 18.977 64.9301C19.282 64.4461 19.376 63.9361 19.188 63.3921C19.073 63.0591 18.865 62.8001 18.58 62.5991C18.225 62.3451 17.828 62.2661 17.398 62.3221C16.979 62.3771 16.639 62.5821 16.35 62.9121C14.982 61.7491 13.735 60.5011 12.588 59.1541C13.281 58.3241 13.367 57.5401 12.851 56.8571C12.332 56.1691 11.559 56.0421 10.548 56.4961C9.54 55.0451 8.657 53.5191 7.89 51.8961C8.375 51.6621 8.67999 51.2981 8.81999 50.7971C8.91899 50.4391 8.88799 50.0871 8.74699 49.7461C8.418 48.9561 7.72199 48.6451 6.61699 48.8181C6.01599 47.1611 5.569 45.4581 5.244 43.6891C5.786 43.5801 6.191 43.2961 6.451 42.8241C6.63 42.4981 6.67399 42.1491 6.61699 41.7841C6.55199 41.3511 6.338 41.0111 5.995 40.7431C5.654 40.4771 5.257 40.3901 4.819 40.3971C4.67 38.6191 4.66999 36.8631 4.81999 35.0751C5.41099 35.1051 5.90199 34.9121 6.27699 34.4651C6.51699 34.1791 6.622 33.8411 6.642 33.4741C6.682 32.7061 6.215 32.1231 5.25 31.7731C5.557 30.0371 6.019 28.3381 6.619 26.6411C7.17 26.8261 7.684 26.7721 8.162 26.4551C8.464 26.2561 8.66299 25.9761 8.78099 25.6361C9.05199 24.8531 8.775 24.1861 7.899 23.5621C8.653 21.9661 9.539 20.4421 10.558 18.9651C11.024 19.2691 11.509 19.3571 12.027 19.2031C12.384 19.0981 12.664 18.8831 12.88 18.5821C13.364 17.9091 13.269 17.1251 12.588 16.3281C13.729 14.9781 14.98 13.7351 16.346 12.5701C16.726 12.9921 17.18 13.1971 17.735 13.1741C18.098 13.1581 18.411 13.0251 18.688 12.7971C19.332 12.2661 19.44 11.5001 18.988 10.5431C20.438 9.53606 21.964 8.65407 23.589 7.88206C23.841 8.38706 24.225 8.70607 24.764 8.83006C25.119 8.91107 25.456 8.86306 25.784 8.71906C26.183 8.54406 26.461 8.24806 26.628 7.84806C26.798 7.44806 26.782 7.04306 26.654 6.61306C28.334 6.01006 30.038 5.55806 31.802 5.23506C31.907 5.76706 32.176 6.16106 32.625 6.42206C32.947 6.60706 33.291 6.66506 33.66 6.61606C34.104 6.55706 34.457 6.34806 34.734 6.00006C35.005 5.66006 35.098 5.26506 35.079 4.81306C36.857 4.65806 38.612 4.66406 40.394 4.80806C40.405 4.91506 40.413 5.01507 40.42 5.11407C40.478 5.82007 40.966 6.40806 41.637 6.58206C42.318 6.75706 43.039 6.49406 43.422 5.90806C43.548 5.71506 43.622 5.48806 43.734 5.24506C45.456 5.55406 47.157 6.01007 48.841 6.61106C48.682 7.15206 48.71 7.65407 49.008 8.12107C49.209 8.43507 49.491 8.64506 49.839 8.77006C50.622 9.05106 51.359 8.74906 51.917 7.88906C53.514 8.63906 55.036 9.52806 56.519 10.5481C56.205 11.0311 56.125 11.5451 56.306 12.0861C56.417 12.4191 56.63 12.6771 56.914 12.8801C57.269 13.1351 57.667 13.2141 58.096 13.1581C58.513 13.1041 58.853 12.8941 59.147 12.5681C60.508 13.7251 61.75 14.9691 62.877 16.2931C62.712 16.5631 62.534 16.8051 62.409 17.0721C62.28 17.3511 62.286 17.6621 62.34 17.9621C62.394 18.2661 62.543 18.5271 62.752 18.7541C63.301 19.3461 64.077 19.4331 64.896 18.9931C65.251 19.2331 67.099 22.3861 67.592 23.5801C67.073 23.8431 66.737 24.2611 66.638 24.8481C66.578 25.2121 66.646 25.5601 66.822 25.8871C67.194 26.5821 67.894 26.8501 68.874 26.6521C69.477 28.3111 69.926 30.0151 70.248 31.7711C69.316 32.0501 68.79 32.6241 68.87 33.6311C68.891 33.9171 68.999 34.1791 69.175 34.4091C69.35 34.6391 69.564 34.8341 69.833 34.9281C70.095 35.0181 70.374 35.0571 70.684 35.1261C70.823 36.8531 70.816 38.6081 70.683 40.4001C70.094 40.3751 69.601 40.5631 69.223 41.0071C68.981 41.2911 68.874 41.6311 68.85 41.9941C68.798 42.7581 69.268 43.3391 70.243 43.7151Z" fill="white"/>
<path fill-rule="evenodd" clip-rule="evenodd" d="M44.514 38.1011C45.018 38.1601 45.525 38.2191 46.03 38.2801C47.236 38.4251 48.441 38.5751 49.649 38.7121C50.264 38.7831 50.878 38.8901 51.504 38.8471C52.548 38.7721 53.595 38.7251 54.637 38.6641C56.096 38.5791 57.554 38.4901 59.013 38.4051C60.188 38.3391 61.366 38.2791 62.541 38.2131C64.479 38.1031 66.417 37.9901 68.355 37.8801C69.021 37.8401 69.687 37.7991 70.353 37.7601C70.082 37.7171 69.811 37.6931 69.54 37.6781C68.702 37.6311 67.863 37.5891 67.027 37.5411C65.531 37.4561 64.036 37.3641 62.539 37.2781C61.4 37.2141 60.264 37.1541 59.124 37.0901C57.523 37.0001 55.9249 36.9071 54.325 36.8151C53.5359 36.7691 52.745 36.7141 51.955 36.6731C51.469 36.6491 50.98 36.5961 50.489 36.6691C49.949 36.7471 49.406 36.8071 48.864 36.8721C47.638 37.0191 46.413 37.1681 45.189 37.3131C44.913 37.3471 44.635 37.3711 44.352 37.3991C44.307 37.0351 44.269 36.7121 44.227 36.3681C44.34 36.3471 44.44 36.3231 44.539 36.3081C44.866 36.2611 45.191 36.2181 45.518 36.1711C46.925 35.9691 48.334 35.7711 49.741 35.5621C50.233 35.4891 50.729 35.4421 51.208 35.2811C53.136 34.6341 55.069 34.0001 57.002 33.3631C60.881 32.0811 64.763 30.8011 68.644 29.5191C68.7649 29.4791 68.886 29.4361 69.006 29.3941C69.0019 29.3761 68.997 29.3591 68.992 29.3401C68.69 29.4021 68.388 29.4631 68.086 29.5251C65.043 30.1571 62 30.7881 58.958 31.4201C56.45 31.9411 53.941 32.4571 51.435 32.9831C50.931 33.0901 50.415 33.1521 49.929 33.3481C48.06 34.1021 46.187 34.8491 44.316 35.5971C44.233 35.6321 44.147 35.6591 44.053 35.6901C43.916 35.3571 43.789 35.0491 43.657 34.7281C43.75 34.6831 43.824 34.6451 43.9 34.6131C45.762 33.8171 47.626 33.0211 49.486 32.2231C49.641 32.1571 49.795 32.0801 49.935 31.9881C55.161 28.5621 60.384 25.1351 65.609 21.7071C65.693 21.6531 65.773 21.5961 65.857 21.5411C65.745 21.5441 65.654 21.5851 65.565 21.6301C59.995 24.4341 54.424 27.2381 48.855 30.0451C48.696 30.1261 48.543 30.2221 48.401 30.3291C46.785 31.5371 45.172 32.7471 43.558 33.9561C43.477 34.0171 43.392 34.0721 43.303 34.1361C43.082 33.8511 42.874 33.5881 42.657 33.3121C42.745 33.2401 42.815 33.1801 42.887 33.1221C44.48 31.8701 46.074 30.6181 47.666 29.3641C47.79 29.2661 47.912 29.1581 48.018 29.0391C50.286 26.5021 52.551 23.9621 54.816 21.4231C56.712 19.2981 58.607 17.1741 60.502 15.0491C60.556 14.9881 60.606 14.9241 60.659 14.8611C60.554 14.8851 60.489 14.9401 60.428 14.9961C55.77 19.1491 51.113 23.3021 46.456 27.4571C46.344 27.5571 46.241 27.6681 46.149 27.7871C44.888 29.3861 43.631 30.9881 42.373 32.5881C42.31 32.6691 42.243 32.7451 42.173 32.8301C41.892 32.6081 41.629 32.3991 41.352 32.1811C41.419 32.0861 41.477 32.0011 41.538 31.9201C42.736 30.3201 43.936 28.7221 45.13 27.1201C45.27 26.9321 45.393 26.7281 45.499 26.5191C48.28 21.0011 51.06 15.4811 53.839 9.96107C53.88 9.88007 53.912 9.79607 53.95 9.71307C53.854 9.77207 53.797 9.85207 53.743 9.93507C50.342 15.1201 46.94 20.3041 43.54 25.4901C43.434 25.6541 43.338 25.8301 43.262 26.0101C42.468 27.8541 41.681 29.6981 40.891 31.5431C40.852 31.6371 40.806 31.7281 40.758 31.8311C40.433 31.6951 40.122 31.5651 39.796 31.4301C39.83 31.3291 39.859 31.2411 39.893 31.1561C40.646 29.2761 41.401 27.3961 42.153 25.5161C42.208 25.3771 42.259 25.2331 42.29 25.0871C42.821 22.5431 43.349 19.9981 43.878 17.4541C44.609 13.9331 45.342 10.4111 46.073 6.88907C46.102 6.74607 46.123 6.60207 46.149 6.45907C46.014 6.71407 45.924 6.98007 45.836 7.24607C44.085 12.5491 42.333 17.8501 40.585 23.1541C40.333 23.9211 40.057 24.6781 39.956 25.4931C39.767 27.0161 39.527 28.5331 39.309 30.0521C39.251 30.4501 39.192 30.8481 39.131 31.2601C38.7719 31.2161 38.442 31.1751 38.088 31.1321C38.1049 30.9671 38.114 30.8181 38.132 30.6701C38.2 30.0911 38.272 29.5111 38.342 28.9311C38.465 27.9121 38.591 26.8931 38.71 25.8741C38.787 25.2101 38.906 24.5501 38.841 23.8751C38.807 23.5191 38.798 23.1611 38.778 22.8021C38.67 20.9021 38.557 19.0011 38.449 17.1011C38.355 15.4731 38.262 13.8461 38.169 12.2181C38.074 10.5531 37.98 8.88707 37.884 7.22207C37.845 6.53507 37.804 5.84907 37.763 5.16207C37.752 5.15907 37.742 5.15507 37.734 5.15207C37.695 5.77207 37.655 6.39207 37.62 7.01207C37.572 7.84907 37.53 8.68707 37.483 9.52407C37.397 10.9921 37.309 12.4601 37.225 13.9271C37.176 14.7651 37.136 15.6021 37.088 16.4401C36.999 17.9921 36.909 19.5441 36.817 21.0971C36.769 21.9231 36.714 22.7491 36.672 23.5761C36.647 24.0461 36.606 24.5141 36.669 24.9861C36.766 25.6951 36.846 26.4071 36.931 27.1181C37.057 28.1651 37.186 29.2121 37.31 30.2601C37.343 30.5461 37.371 30.8341 37.402 31.1331C37.045 31.1771 36.721 31.2171 36.373 31.2591C36.351 31.1551 36.327 31.0571 36.311 30.9581C36.281 30.7531 36.256 30.5461 36.227 30.3421C36.027 28.9441 35.827 27.5451 35.623 26.1471C35.511 25.3651 35.391 24.5911 35.139 23.8311C33.231 18.1041 31.348 12.3701 29.454 6.63807C29.417 6.52607 29.373 6.41607 29.322 6.28007C29.314 6.33007 29.306 6.34907 29.311 6.36607C29.745 8.46807 30.182 10.5691 30.62 12.6711C31.424 16.5431 32.226 20.4151 33.035 24.2861C33.13 24.7361 33.198 25.1911 33.376 25.6251C34.122 27.4671 34.856 29.3131 35.596 31.1581C35.63 31.2431 35.66 31.3301 35.695 31.4311C35.371 31.5661 35.061 31.6941 34.732 31.8321C34.686 31.7301 34.641 31.6381 34.602 31.5451C33.814 29.7101 33.031 27.8731 32.242 26.0391C32.157 25.8411 32.055 25.6471 31.937 25.4671C28.523 20.2571 25.105 15.0491 21.686 9.84207C21.641 9.77407 21.591 9.71007 21.542 9.64307C21.554 9.76107 21.601 9.85907 21.649 9.95607C24.442 15.5001 27.234 21.0451 30.03 26.5891C30.122 26.7731 30.232 26.9501 30.356 27.1161C31.562 28.7321 32.773 30.3451 33.982 31.9591C34.037 32.0311 34.084 32.1071 34.136 32.1841C33.851 32.4081 33.594 32.6101 33.312 32.8301C33.213 32.7081 33.119 32.5931 33.028 32.4761C31.799 30.9131 30.57 29.3481 29.34 27.7861C29.242 27.6611 29.13 27.5431 29.013 27.4381C25.974 24.7261 22.936 22.0161 19.895 19.3061C18.298 17.8811 16.702 16.4571 15.104 15.0341C15.044 14.9801 14.994 14.8981 14.858 14.8951C14.924 14.9751 14.967 15.0261 15.01 15.0741C19.139 19.7031 23.266 24.3321 27.399 28.9581C27.536 29.1121 27.687 29.2561 27.849 29.3841C29.433 30.6331 31.02 31.8781 32.605 33.1251C32.683 33.1861 32.755 33.2521 32.831 33.3181C32.605 33.6031 32.402 33.8611 32.188 34.1321C32.101 34.0721 32.023 34.0231 31.949 33.9681C30.327 32.7541 28.706 31.5381 27.083 30.3241C26.963 30.2341 26.837 30.1481 26.704 30.0811C21.092 27.2521 15.479 24.4261 9.86696 21.6011C9.80096 21.5671 9.73096 21.5411 9.66296 21.5121C9.71796 21.5951 9.78497 21.6441 9.85497 21.6901C15.062 25.1071 20.272 28.5241 25.481 31.9391C25.654 32.0511 25.837 32.1491 26.027 32.2311C27.872 33.0241 29.716 33.8121 31.559 34.6011C31.654 34.6411 31.743 34.6861 31.835 34.7301C31.694 35.0631 31.564 35.3741 31.431 35.6941C31.325 35.6541 31.238 35.6221 31.151 35.5881C29.744 35.0241 28.339 34.4571 26.929 33.8971C26.037 33.5421 25.153 33.1891 24.199 33.0021C21.399 32.4541 18.61 31.8531 15.817 31.2731C13.134 30.7151 10.451 30.1561 7.76897 29.5981C7.28397 29.4971 6.79896 29.4001 6.31596 29.3021C6.42296 29.3731 6.53696 29.4171 6.65196 29.4551C12.285 31.3151 17.919 33.1761 23.552 35.0341C23.981 35.1761 24.408 35.3281 24.847 35.4291C25.269 35.5241 25.704 35.5581 26.133 35.6191C27.765 35.8501 29.396 36.0831 31.028 36.3161C31.107 36.3281 31.186 36.3571 31.264 36.3791C31.22 36.7261 31.179 37.0491 31.135 37.3961C31.008 37.3861 30.897 37.3831 30.786 37.3701C30.243 37.3041 29.702 37.2331 29.159 37.1691C27.926 37.0181 26.692 36.8701 25.457 36.7241C25.12 36.6841 24.782 36.6161 24.446 36.6281C23.495 36.6601 22.544 36.7241 21.593 36.7801C19.806 36.8841 18.02 36.9891 16.232 37.0951C14.954 37.1711 13.673 37.2431 12.393 37.3161C10.559 37.4191 8.72396 37.5181 6.88896 37.6231C6.30596 37.6561 5.72497 37.6951 5.14197 37.7321C5.26297 37.7681 5.38296 37.7731 5.50296 37.7791C6.57496 37.8391 7.64897 37.8991 8.72197 37.9611C10.227 38.0471 11.732 38.1371 13.237 38.2231C14.047 38.2711 14.856 38.3101 15.666 38.3581C17.134 38.4431 18.601 38.5301 20.068 38.6171C21.32 38.6891 22.57 38.7651 23.822 38.8311C24.169 38.8501 24.52 38.8571 24.866 38.8281C25.409 38.7811 25.95 38.6971 26.493 38.6301C27.886 38.4621 29.279 38.2961 30.673 38.1291C30.828 38.1111 30.983 38.1021 31.139 38.0891C31.184 38.4511 31.221 38.7771 31.263 39.1301C30.929 39.1771 30.606 39.2241 30.282 39.2721C28.734 39.4941 27.187 39.7121 25.641 39.9391C25.231 40.0011 24.812 40.0431 24.422 40.1701C18.526 42.1061 12.633 44.0541 6.74097 45.9991C6.63997 46.0321 6.54396 46.0741 6.44496 46.1131C6.50196 46.1411 6.54796 46.1401 6.59196 46.1321C8.04796 45.8301 9.50497 45.5281 10.961 45.2261C15.396 44.3031 19.831 43.3851 24.264 42.4601C24.688 42.3711 25.121 42.2981 25.521 42.1431C27.407 41.4051 29.283 40.6431 31.163 39.8901C31.248 39.8571 31.335 39.8301 31.434 39.7971C31.571 40.1251 31.7 40.4341 31.834 40.7571C31.729 40.8071 31.635 40.8521 31.542 40.8921C29.688 41.6851 27.836 42.4771 25.982 43.2721C25.827 43.3391 25.675 43.4181 25.535 43.5101C20.326 46.9251 15.117 50.3431 9.90897 53.7601C9.83497 53.8081 9.76396 53.8621 9.69096 53.9141C9.85396 53.8891 9.99497 53.8211 10.134 53.7501C15.637 50.9791 21.139 48.2081 26.641 45.4351C26.791 45.3601 26.937 45.2691 27.072 45.1681C28.695 43.9541 30.316 42.7391 31.938 41.5241C32.018 41.4631 32.101 41.4101 32.188 41.3501C32.412 41.6381 32.616 41.9031 32.828 42.1741C32.746 42.2431 32.683 42.2991 32.617 42.3511C31.596 43.1561 30.569 43.9551 29.55 44.7611C28.547 45.5571 27.481 46.2801 26.692 47.3131C26.645 47.3731 26.59 47.4261 26.54 47.4831C22.694 51.7951 18.849 56.1071 15.001 60.4211C14.941 60.4871 14.888 60.5591 14.83 60.6281C14.951 60.5861 15.04 60.5111 15.127 60.4341C19.748 56.3111 24.37 52.1891 28.991 48.0651C29.13 47.9401 29.26 47.8011 29.377 47.6541C30.625 46.0711 31.87 44.4831 33.118 42.8971C33.18 42.8181 33.246 42.7411 33.315 42.6571C33.599 42.8801 33.862 43.0891 34.142 43.3071C34.073 43.4011 34.014 43.4841 33.952 43.5661C32.743 45.1801 31.532 46.7941 30.325 48.4101C30.231 48.5371 30.142 48.6731 30.07 48.8141C27.249 54.4091 24.431 60.0031 21.613 65.5991C21.574 65.6781 21.542 65.7601 21.507 65.8411C21.592 65.7781 21.647 65.7021 21.697 65.6251C25.11 60.4251 28.523 55.2251 31.932 50.0221C32.05 49.8421 32.153 49.6491 32.238 49.4521C33.027 47.6161 33.811 45.7801 34.597 43.9451C34.64 43.8451 34.688 43.7501 34.733 43.6511C35.078 43.7981 35.384 43.9281 35.698 44.0601C35.648 44.1911 35.611 44.2981 35.57 44.4031C34.827 46.2551 34.082 48.1081 33.34 49.9621C33.287 50.0931 33.236 50.2271 33.208 50.3641C32.791 52.3541 32.378 54.3451 31.965 56.3371C31.138 60.3201 30.31 64.3011 29.485 68.2841C29.435 68.5211 29.391 68.7601 29.346 68.9961C29.425 68.9141 29.465 68.8201 29.496 68.7251C31.309 63.2351 33.126 57.7451 34.932 52.2521C35.144 51.6101 35.419 50.9851 35.489 50.3021C35.515 50.0301 35.565 49.7601 35.604 49.4901C35.8 48.1101 35.997 46.7301 36.195 45.3501C36.249 44.9801 36.305 44.6101 36.363 44.2241C36.723 44.2701 37.053 44.3101 37.401 44.3551C37.387 44.5081 37.381 44.6401 37.366 44.7691C37.3 45.3101 37.231 45.8541 37.166 46.3961C37.02 47.6111 36.869 48.8261 36.729 50.0431C36.686 50.4151 36.63 50.7921 36.644 51.1661C36.69 52.3431 36.765 53.5181 36.832 54.6941C36.869 55.4101 36.911 56.1251 36.953 56.8401C37.042 58.3921 37.134 59.9441 37.222 61.4971C37.266 62.2491 37.306 63.0021 37.348 63.7551C37.44 65.3541 37.53 66.9521 37.623 68.5521C37.658 69.1541 37.698 69.7531 37.736 70.3531C37.768 70.2311 37.777 70.1091 37.785 69.9871C37.844 68.9241 37.902 67.8601 37.964 66.7981C38.054 65.2271 38.145 63.6541 38.235 62.0841C38.297 61.0221 38.355 59.9581 38.416 58.8951C38.507 57.3231 38.596 55.7511 38.688 54.1821C38.735 53.3721 38.792 52.5631 38.829 51.7541C38.849 51.3691 38.854 50.9811 38.829 50.5971C38.806 50.2121 38.736 49.8301 38.689 49.4471C38.502 47.8951 38.316 46.3431 38.13 44.7901C38.112 44.6451 38.106 44.5001 38.094 44.3531C38.458 44.3081 38.783 44.2691 39.124 44.2261C39.149 44.3611 39.174 44.4801 39.191 44.5981C39.238 44.9251 39.28 45.2521 39.328 45.5781C39.53 46.9951 39.735 48.4111 39.937 49.8281C40.014 50.3691 40.097 50.9051 40.279 51.4261C40.593 52.3241 40.882 53.2311 41.178 54.1341C42.799 59.0331 44.415 63.9331 46.034 68.8331C46.057 68.9031 46.088 68.9731 46.115 69.0421C46.097 68.7321 46.038 68.4381 45.977 68.1461C45.361 65.1861 44.746 62.2281 44.131 59.2681C43.574 56.5831 43.023 53.9021 42.461 51.2201C42.364 50.7601 42.293 50.2961 42.112 49.8531C41.367 48.0211 40.637 46.1841 39.902 44.3471C39.866 44.2531 39.831 44.1591 39.794 44.0561C40.129 43.9171 40.439 43.7901 40.759 43.6571C40.807 43.7581 40.851 43.8421 40.886 43.9271C41.679 45.7811 42.471 47.6341 43.267 49.4871C43.34 49.6591 43.429 49.8271 43.532 49.9841C46.683 54.7911 49.838 59.5971 52.992 64.4041C53.325 64.9121 53.659 65.4191 53.994 65.9261C53.988 65.8351 53.956 65.7591 53.919 65.6861C51.09 60.0641 48.259 54.4441 45.426 48.8261C45.359 48.6931 45.279 48.5621 45.188 48.4421C43.963 46.8041 42.738 45.1681 41.512 43.5311C41.456 43.4581 41.41 43.3811 41.357 43.3021C41.641 43.0811 41.906 42.8741 42.18 42.6601C42.25 42.7471 42.31 42.8181 42.367 42.8911C43.628 44.4921 44.884 46.0931 46.144 47.6931C46.243 47.8171 46.353 47.9361 46.471 48.0431C49.298 50.5651 52.126 53.0881 54.954 55.6091C56.77 57.2271 58.584 58.8471 60.4 60.4641C60.46 60.5191 60.513 60.5941 60.654 60.6121C60.573 60.5181 60.525 60.4611 60.475 60.4051C56.353 55.7841 52.232 51.1631 48.106 46.5421C47.957 46.3751 47.789 46.2201 47.611 46.0801C46.037 44.8361 44.456 43.5981 42.878 42.3561C42.807 42.2991 42.736 42.2381 42.659 42.1741C42.879 41.8951 43.088 41.6301 43.308 41.3501C43.4 41.4161 43.483 41.4741 43.566 41.5361C44.743 42.4171 45.933 43.2801 47.092 44.1851C48.091 44.9661 49.163 45.6121 50.298 46.1771C55.381 48.7141 60.448 51.2811 65.523 53.8351C65.61 53.8791 65.7 53.9171 65.789 53.9571C65.723 53.8551 65.638 53.7971 65.553 53.7401C60.352 50.3281 55.152 46.9171 49.949 43.5071C49.816 43.4191 49.674 43.3431 49.528 43.2801C47.674 42.4851 45.821 41.6931 43.969 40.9011C43.865 40.8571 43.765 40.8081 43.656 40.7571C43.795 40.4301 43.925 40.1201 44.061 39.7961C44.165 39.8331 44.253 39.8611 44.338 39.8951C46.218 40.6481 48.097 41.4021 49.978 42.1531C50.126 42.2121 50.28 42.2641 50.435 42.2961C53.025 42.8361 55.617 43.3711 58.207 43.9091C61.507 44.5951 64.807 45.2821 68.106 45.9671C68.417 46.0321 68.729 46.0941 69.042 46.1561C68.936 46.0651 68.816 46.0231 68.694 45.9841C63.186 44.1651 57.678 42.3441 52.168 40.5311C51.589 40.3401 51.022 40.1041 50.409 40.0181C48.628 39.7721 46.847 39.5111 45.068 39.2541C44.791 39.2141 44.514 39.1691 44.224 39.1251C44.271 38.7651 44.313 38.4341 44.356 38.0931C44.422 38.0961 44.469 38.0951 44.514 38.1011Z" fill="white"/>
</svg>
